# xmcd CD database file
#
# Track frame offsets:
#	182
#	15792
#	30637
#	41565
#	56140
#	73650
#	89170
#	108435
#	120592
#	136735
#	159397
#	167997
#	187672
#	203745
#	218355
#	241935
#	253677
#	266485
#
# Disc length: 3736 seconds
#
# Revision: 3
# Processed by: cddbd v1.5.2PL0 Copyright (c) Steve Scherf et al.
# Submitted via: CDex 1.51
#
DISCID=ed0e9612
DTITLE=B.B. King - Best of
DYEAR=1994
DGENRE=Blues
TTITLE0=The Letter
TTITLE1=Long Nights
TTITLE2=Catfish Blues
TTITLE3=Boogie
TTITLE4=Evil Child
TTITLE5=Walking and cryin'
TTITLE6=Sweet 16
TTITLE7=Please Love
TTITLE8=The other Night Blues
TTITLE9=Everyday I have the Blues
TTITLE10=A new Way of Drivin'
TTITLE11=How Blue can you get
TTITLE12=It's my own Fault Baby
TTITLE13=Mr Pawnbroker
TTITLE14=You've done lost your good Thing now
TTITLE15=Playing the Cost to the Boss
TTITLE16=I'm working on the Building
TTITLE17=Save a Seat for me
EXTD=YEAR: 1994
EXTT0=
EXTT1=
EXTT2=
EXTT3=
EXTT4=
EXTT5=
EXTT6=
EXTT7=
EXTT8=
EXTT9=
EXTT10=
EXTT11=
EXTT12=
EXTT13=
EXTT14=
EXTT15=
EXTT16=
EXTT17=
PLAYORDER=
